<?xml version="1.0" encoding="UTF-8"?>
<svg version="1.1" xmlns="http://www.w3.org/2000/svg" width="512" height="512">
<path d="M0 0 C1.41233938 -0.00346312 2.82467605 -0.00823206 4.23700714 -0.01418173 C8.09033048 -0.02663162 11.9434291 -0.020549 15.79675293 -0.01122308 C19.96314975 -0.0044081 24.12950916 -0.0149259 28.29589844 -0.02316284 C36.44693461 -0.03647634 44.59788774 -0.03363308 52.74892712 -0.02492492 C59.37567512 -0.01813938 66.00239991 -0.01723541 72.62915039 -0.02049637 C73.57365759 -0.02095607 74.5181648 -0.02141577 75.49129343 -0.0218894 C77.41026752 -0.02284861 79.3292416 -0.02382125 81.24821568 -0.02480717 C99.22652788 -0.03335408 117.20479413 -0.0235379 135.18309879 -0.00740607 C150.59669824 0.00599647 166.0102299 0.00366818 181.42382812 -0.01016235 C199.339466 -0.02623051 217.25506363 -0.03253017 235.1707077 -0.02332556 C237.08247375 -0.02236995 238.9942398 -0.02142684 240.90600586 -0.02049637 C241.84653887 -0.02003354 242.78707189 -0.01957072 243.7561059 -0.01909386 C250.37200038 -0.01650769 256.98786925 -0.02086694 263.60375977 -0.02793503 C271.6704646 -0.03636396 279.73708189 -0.03404063 287.80377674 -0.0180928 C291.91655607 -0.01022882 296.02918965 -0.00708639 300.14196777 -0.01704025 C303.91213443 -0.02602666 307.68202121 -0.02098994 311.45216274 -0.0051076 C313.45069606 -0.0002071 315.44924905 -0.00992087 317.44776154 -0.02027929 C335.17775069 0.09469211 351.70560245 6.8618529 364.21289062 19.52548218 C375.04885739 31.63724319 381.10496046 46.30929722 381.02827454 62.50675964 C381.03210008 63.37986288 381.03592563 64.25296612 381.0398671 65.15252703 C381.05011763 68.05400775 381.04622015 70.95528762 381.04223633 73.85678101 C381.04658723 75.94698773 381.05177164 78.03719286 381.057724 80.12739563 C381.07108526 85.78866293 381.0716958 91.44986336 381.0691607 97.11114335 C381.06808893 101.84501959 381.0729797 106.57888241 381.07776612 111.31275576 C381.08885162 122.48564423 381.08930425 133.65849908 381.08325195 144.83139038 C381.07721382 156.33925341 381.08952137 167.84699412 381.11082202 179.35483629 C381.12846369 189.25152196 381.13443528 199.14816879 381.13118428 209.0448696 C381.1293752 214.94839695 381.13197009 220.85183707 381.14589882 226.75535011 C381.15851408 232.30976109 381.15649806 237.86398207 381.14348793 243.41839027 C381.14113056 245.45001796 381.14382653 247.48165917 381.15211105 249.51327133 C381.2332538 270.9689239 377.17281196 287.80603058 361.60742188 303.56845093 C349.73492147 314.62432432 335.70610275 320.56224436 319.4596405 320.50120544 C318.20979062 320.50248708 318.20979062 320.50248708 316.93469125 320.50379461 C314.14483409 320.50544072 311.35503716 320.49994225 308.56518555 320.49447632 C306.56447348 320.49419423 304.56376132 320.4943526 302.56304932 320.49491882 C297.13169138 320.49520596 291.70035549 320.48932262 286.26900268 320.48234487 C280.59285452 320.47609753 274.91670587 320.47550643 269.24055481 320.47431946 C258.49197037 320.47121022 247.74339609 320.4630023 236.99481612 320.45296997 C224.75793315 320.4417962 212.52104969 320.43629519 200.28416288 320.43127453 C175.11196233 320.42081937 149.93977079 320.40322779 124.76757812 320.38095093 C124.66902895 318.32463372 124.59908418 316.26693414 124.54101562 314.20907593 C124.47793213 312.49059448 124.47793213 312.49059448 124.41357422 310.73739624 C124.92289132 305.90836758 127.16633169 303.41827477 130.43164062 299.99032593 C132.80068445 297.62109354 132.80068445 297.62109354 133.71215439 295.19541073 C135.09221698 292.28255965 136.3187076 290.50094866 138.76757812 288.38095093 C144.39287574 286.9973284 149.95865015 287.20433099 155.72167969 287.29916382 C157.4698772 287.29511221 159.21806935 287.28707579 160.9662323 287.27536011 C165.70879993 287.25459361 170.44958028 287.28883002 175.19193363 287.33233953 C180.1614227 287.36796992 185.13071818 287.35108738 190.10028076 287.33930969 C199.51971473 287.3245942 208.93844786 287.35391645 218.35775828 287.40048069 C232.16117892 287.46701655 245.96465361 287.47347916 259.76821518 287.47280788 C260.78267975 287.47278005 261.79714432 287.47275222 262.84235024 287.47272354 C264.86617224 287.47264851 266.88999424 287.47245109 268.91381621 287.47212785 C274.823715 287.47274459 280.73334337 287.48807722 286.64317274 287.51643097 C290.32890854 287.53286925 294.0146393 287.5415874 297.70040321 287.54892731 C299.40230859 287.55420517 301.10420749 287.56297758 302.80607414 287.57561302 C315.69401628 287.66951418 327.19012738 287.65657301 337.76757812 279.38095093 C346.08757877 270.74566605 347.92610556 260.90099781 347.90129089 249.24147034 C347.90355645 248.45033586 347.90582201 247.65920139 347.90815622 246.84409314 C347.91445756 244.20817063 347.91366935 241.57230004 347.9128418 238.93637085 C347.9158357 237.0402571 347.91923876 235.14414396 347.92301941 233.24803162 C347.93184002 228.1074395 347.93419671 222.96686405 347.9348352 217.8262651 C347.93554679 214.61180369 347.93768319 211.39734649 347.94033241 208.18288612 C347.94957937 196.96073768 347.95366811 185.7386011 347.95288086 174.51644897 C347.95228022 164.06857151 347.96283109 153.6207457 347.97862452 143.17288131 C347.99171523 134.19176402 347.99706411 125.21066358 347.99642545 116.22953683 C347.99617092 110.87044063 347.99899749 105.51139036 348.0096035 100.1523037 C348.01931025 95.11012504 348.019346 90.06803599 348.01208687 85.02585411 C348.01104424 83.18044402 348.01338474 81.33502827 348.01944733 79.48962784 C348.16840838 60.25642646 348.16840838 60.25642646 339.76757812 43.38095093 C329.60531674 33.40765722 317.29207422 33.23013919 303.84465027 33.24723816 C301.88615716 33.24383982 301.88615716 33.24383982 299.88809854 33.24037284 C296.27471013 33.23426989 292.66134491 33.23438665 289.04795253 33.23556721 C285.14668541 33.2357716 281.24542566 33.23024885 277.34416199 33.22550964 C269.70495564 33.21721087 262.06575701 33.21445516 254.42654654 33.21389727 C248.21589006 33.21342175 242.00523613 33.21136525 235.79458046 33.20819664 C218.17858375 33.19939231 200.56259313 33.19477694 182.9465942 33.19552711 C181.52271391 33.19558705 181.52271391 33.19558705 180.07006836 33.19564819 C178.64444569 33.19570951 178.64444569 33.19570951 177.19002257 33.19577207 C161.78748019 33.19617852 146.38496227 33.18660878 130.98242696 33.17250983 C115.15972169 33.15814077 99.33702834 33.15123993 83.51431638 33.1521036 C74.63407281 33.15243538 65.75385486 33.14969667 56.87361717 33.13892555 C49.31295551 33.12981361 41.75233111 33.12765103 34.19166633 33.13443498 C30.33627044 33.13769662 26.48094601 33.13776972 22.62555695 33.12908173 C18.44080304 33.11974872 14.25621409 33.126002 10.07145691 33.13371277 C8.86025671 33.12856921 7.6490565 33.12342564 6.40115327 33.11812621 C-4.76967188 33.1635772 -15.3329752 34.15189592 -23.98242188 41.81845093 C-25.09617187 43.08688843 -25.09617187 43.08688843 -26.23242188 44.38095093 C-26.93367188 45.14407593 -27.63492188 45.90720093 -28.35742188 46.69345093 C-34.51592834 55.52064353 -34.34057812 65.36612286 -34.16210938 75.72079468 C-34.15121223 77.94018272 -34.1434974 80.15958826 -34.13867188 82.3789978 C-34.13080881 85.85422597 -34.10727195 89.3252162 -34.03027344 92.7996521 C-33.62920739 112.18954735 -33.62920739 112.18954735 -37.58544922 117.59725952 C-40.40383901 119.64454921 -43.04795342 120.99738635 -46.23242188 122.38095093 C-47.89047388 123.5867654 -49.52178139 124.8313859 -51.10742188 126.13095093 C-53.36190507 127.90890926 -55.61620511 129.66655706 -57.91992188 131.38095093 C-60.5976169 133.69679527 -62.76511715 136.25095853 -64.99804688 138.99032593 C-65.40539062 139.44923218 -65.81273437 139.90813843 -66.23242188 140.38095093 C-66.56242187 140.38095093 -66.89242187 140.38095093 -67.23242188 140.38095093 C-67.32554966 129.27942234 -67.39640244 118.17798835 -67.43967056 107.07614708 C-67.46044854 101.9197944 -67.48858506 96.76371112 -67.53417969 91.60751343 C-67.57798946 86.62133807 -67.60163238 81.63542006 -67.61193085 76.64906693 C-67.61925969 74.75707581 -67.63356913 72.86509703 -67.6553421 70.97321701 C-67.88723118 49.96784889 -63.2460447 32.94722244 -48.23242188 17.38095093 C-33.95046447 4.81595015 -18.79573786 -0.09741953 0 0 Z " fill="#202020" transform="translate(99.232421875,63.619049072265625)"/>
<path d="M0 0 C5.27539652 4.0943376 10.12504713 8.54981412 14.87890625 13.234375 C15.53632813 13.87890625 16.19375 14.5234375 16.87109375 15.1875 C35.31527739 34.73663473 40.78537226 60.68828531 40.22265625 86.68359375 C39.15330173 113.3372552 25.57860914 135.56677724 6.50390625 153.484375 C-15.49407588 172.31746095 -41.13907849 176.90352528 -69.12109375 175.234375 C-91.0863186 173.2916024 -110.89945669 161.63614977 -126.12109375 146.234375 C-126.848125 145.51765625 -127.57515625 144.8009375 -128.32421875 144.0625 C-138.4814976 133.42534971 -144.78262842 120.13554099 -149.12109375 106.234375 C-149.6315625 104.64689453 -149.6315625 104.64689453 -150.15234375 103.02734375 C-154.69762425 85.96149892 -153.83573335 65.90954661 -148.12109375 49.234375 C-147.8797168 48.52490723 -147.63833984 47.81543945 -147.38964844 47.08447266 C-138.87059057 22.88284725 -121.37222819 3.24975656 -98.36694336 -8.0637207 C-66.70924394 -22.75122204 -28.62932899 -20.0989575 0 0 Z " fill="#202020" transform="translate(184.12109375,208.765625)"/>
<path d="M0 0 C3.48639162 1.37735369 6.90375793 2.85761172 10.31542969 4.41137695 C22.72721288 10.01185272 35.39218203 14.48610875 49 16 C50.17433594 16.1340625 51.34867188 16.268125 52.55859375 16.40625 C76.89983733 18.56337934 103.38577031 13.78248078 124.3984375 0.8828125 C126 0 126 0 128 0 C128.09279208 9.28394236 128.16381144 18.56772442 128.20724869 27.8520298 C128.22809934 32.16340166 128.25637042 36.47445562 128.30175781 40.78564453 C128.34530627 44.9483387 128.36915608 49.11072761 128.37950897 53.27363205 C128.38688426 54.8596413 128.4012867 56.44563436 128.42292023 58.03151321 C128.4520753 60.25786329 128.45595117 62.48296155 128.45410156 64.70947266 C128.46298401 65.97522125 128.47186646 67.24096985 128.48101807 68.54507446 C127.75313152 73.77313968 125.25590399 76.80689121 121.5 80.375 C116.09490599 82.88450793 111.84385097 83.2593932 106 82 C100.25943292 79.26917656 95.18036446 75.66311541 90 72 C86.17625342 69.29899373 82.3462094 66.60821092 78.50228882 63.93600464 C76.82841579 62.76117074 75.17264262 61.56364898 73.5168457 60.36352539 C71.97130005 59.27865845 71.97130005 59.27865845 70.39453125 58.171875 C69.47518799 57.5128418 68.55584473 56.85380859 67.60864258 56.17480469 C65.10821276 54.74467523 65.10821276 54.74467523 62.68115234 55.46362305 C58.91122214 57.62390084 55.30405683 59.97438968 51.70703125 62.41015625 C50.91979172 62.93765976 50.13255219 63.46516327 49.32145691 64.00865173 C46.81551872 65.68891898 44.31386933 67.3754405 41.8125 69.0625 C39.29962449 70.75191482 36.7858828 72.44002633 34.27140808 74.12705994 C32.70886494 75.17599442 31.14739943 76.22653631 29.58711243 77.27882385 C28.5304261 77.98977455 28.5304261 77.98977455 27.45239258 78.71508789 C26.83237869 79.13319229 26.21236481 79.55129669 25.57356262 79.98207092 C20.8205913 83.05674214 15.49019496 82.51021445 10 82 C5.02657165 79.69090827 2.67389163 76.72357301 0 72 C-0.48101807 68.54507446 -0.48101807 68.54507446 -0.45410156 64.70947266 C-0.45497772 63.6547728 -0.45497772 63.6547728 -0.45587158 62.57876587 C-0.45310277 60.27334825 -0.4220709 57.96925193 -0.390625 55.6640625 C-0.38315826 54.05838731 -0.37746737 52.45270297 -0.37347412 50.84701538 C-0.35825172 46.63493385 -0.3189999 42.42341006 -0.2746582 38.21154785 C-0.23363175 33.90803572 -0.21544742 29.60443286 -0.1953125 25.30078125 C-0.1525017 16.86693246 -0.08429235 8.43353575 0 0 Z " fill="#202020" transform="translate(64,398)"/>
<path d="M0 0 C29.58067273 -0.06843682 59.16134172 -0.12152853 88.742077 -0.15319599 C92.23430146 -0.15694811 95.72652577 -0.16083108 99.21875 -0.16479492 C99.91398938 -0.16558185 100.60922876 -0.16636878 101.325536 -0.16717956 C112.58296283 -0.18023371 123.84034371 -0.2038876 135.09774329 -0.23145839 C146.64875866 -0.25951235 158.1997417 -0.27595168 169.75079048 -0.28226548 C176.23889607 -0.28618039 182.72689742 -0.29539744 189.21496964 -0.31719017 C195.31995784 -0.33753031 201.42479871 -0.34383875 207.52981758 -0.33932304 C209.77198525 -0.34014935 212.01415776 -0.34612959 214.25629616 -0.35761642 C217.31534308 -0.37252158 220.37383226 -0.36896056 223.43289185 -0.36076355 C224.7665627 -0.37387134 224.7665627 -0.37387134 226.1271764 -0.38724393 C231.16839484 -0.35068157 234.63667307 0.19411848 239 3 C243.88107733 8.40876136 244.3543966 11.85827132 244.27734375 19.015625 C243.90333603 23.04015882 242.77391295 25.08009163 240 28 C235.5882168 31.4421718 232.73563284 32.50325722 227.15765381 32.53485107 C226.16211892 32.54844441 226.16211892 32.54844441 225.14647222 32.56231236 C222.93557642 32.58751442 220.72567142 32.58436588 218.51464844 32.58105469 C216.9240849 32.59303095 215.33353296 32.60664337 213.74299622 32.62176514 C209.43077171 32.65704638 205.11886486 32.66647426 200.80650997 32.66902828 C198.10912479 32.67187526 195.41181987 32.68042193 192.71445465 32.69101715 C183.29477326 32.72800753 173.87531802 32.74436003 164.45556641 32.74121094 C155.69041385 32.73880953 146.9262474 32.78098633 138.16134429 32.84418559 C130.62392753 32.89658705 123.08683203 32.91794236 115.54923463 32.9153893 C111.05275171 32.91437204 106.55714506 32.92562371 102.06084442 32.9681015 C97.82826565 33.00699697 93.59739281 33.00703228 89.36475182 32.97803497 C87.81764148 32.97387195 86.27042258 32.98318327 84.72349739 33.00747681 C75.79042155 33.13859964 69.7422087 32.38855157 63.0319252 25.98515701 C62.36138988 25.3300552 61.69085457 24.67495338 61 24 C58.35139841 22.14233876 55.61343835 20.49196356 52.8125 18.875 C52.08401855 18.45323486 51.35553711 18.03146973 50.60498047 17.59692383 C34.94034646 8.73435197 17.62220113 4.17777398 0 1 C0 0.67 0 0.34 0 0 Z " fill="#202020" transform="translate(140,160)"/>
<path d="M0 0 C1.02526291 -0.00540298 2.05052582 -0.01080597 3.1068573 -0.01637268 C6.4816105 -0.02883706 9.85550687 -0.01238458 13.23022461 0.00561523 C15.58239283 0.00546021 17.93456131 0.00397059 20.28672791 0.00120544 C25.21014738 -0.00017749 30.13327516 0.01236326 35.05664062 0.03515625 C41.36388105 0.06355578 47.67063753 0.0607977 53.97791386 0.04806614 C58.83267849 0.04110815 63.68733146 0.04889945 68.54208183 0.06132317 C70.86767588 0.06583536 73.19328191 0.0661765 75.51887703 0.06225777 C78.76934475 0.05934406 82.01914759 0.07586048 85.26953125 0.09765625 C86.22814056 0.0931546 87.18674988 0.08865295 88.17440796 0.08401489 C93.38790955 0.14203281 97.07429316 0.56252555 101.57006836 3.50170898 C106.45114569 8.91047035 106.92446496 12.35998031 106.84741211 19.51733398 C106.35576002 24.80778746 103.98556579 27.29538846 100.07788086 30.62561035 C95.3036618 33.17902672 91.40335435 33.06340194 86.07006836 33.01928711 C85.02544434 33.02629639 83.98082031 33.03330566 82.90454102 33.04052734 C79.45944455 33.05809921 76.01517285 33.0464868 72.57006836 33.03295898 C70.17162926 33.03565411 67.77319122 33.03953671 65.37475586 33.04455566 C60.3512124 33.05044965 55.32795369 33.04189057 50.30444336 33.02319336 C43.86817764 33.00040436 37.43257914 33.0135279 30.99633789 33.03748322 C26.04462668 33.0519436 21.09307341 33.04733399 16.14135742 33.03697205 C13.76830974 33.03430545 11.39524768 33.03757213 9.0222168 33.04689026 C5.70444808 33.05705929 2.38775691 33.04154832 -0.92993164 33.01928711 C-2.39825439 33.0314325 -2.39825439 33.0314325 -3.89624023 33.04382324 C-9.72694391 32.97141784 -12.95490013 32.32020393 -17.42993164 28.50170898 C-21.36881856 24.01952732 -21.78769809 19.85698768 -21.70336914 14.07202148 C-21.25623021 9.86891555 -20.04890856 7.8593717 -17.42993164 4.50170898 C-11.6087084 0.30341456 -7.05880789 -0.07134162 0 0 Z " fill="#202020" transform="translate(277.429931640625,255.498291015625)"/>
</svg>
